<svg width="24" height="24" viewBox="0 0 24 24" fill="none" xmlns="http://www.w3.org/2000/svg">
<path fill-rule="evenodd" clip-rule="evenodd" d="M3 8.74792V19.9944C3 20.4716 3.18964 20.9293 3.52721 21.2668C3.86477 21.6043 4.32261 21.7938 4.8 21.7938H19.2C19.6774 21.7938 20.1352 21.6043 20.4728 21.2668C20.8104 20.9293 21 20.4716 21 19.9944V8.74792H3Z" fill="#F3F0EF"/>
<path fill-rule="evenodd" clip-rule="evenodd" d="M3 9.64792H21V8.74792H3V9.64792Z" fill="#CFCDC8"/>
<path fill-rule="evenodd" clip-rule="evenodd" d="M19.2 3.79944H4.8C4.32261 3.79944 3.86477 3.98902 3.52721 4.32648C3.18964 4.66394 3 5.12164 3 5.59888V8.74789H21V5.59888C21 5.12164 20.8104 4.66394 20.4728 4.32648C20.1352 3.98902 19.6774 3.79944 19.2 3.79944Z" fill="#D64443"/>
<path fill-rule="evenodd" clip-rule="evenodd" d="M12.0055 19.9943C11.7668 19.9943 11.5379 19.8995 11.3691 19.7308C11.2003 19.5621 11.1055 19.3332 11.1055 19.0946C11.1055 16.6136 11.8961 14.8412 12.6764 13.6963H9.75547C9.51677 13.6963 9.28786 13.6015 9.11907 13.4328C8.95029 13.264 8.85547 13.0352 8.85547 12.7966C8.85547 12.5579 8.95029 12.3291 9.11907 12.1604C9.28786 11.9916 9.51677 11.8969 9.75547 11.8969H14.7055C14.8964 11.8969 15.0825 11.9576 15.2366 12.0703C15.3908 12.183 15.5051 12.3418 15.563 12.5237C15.621 12.7056 15.6195 12.9012 15.5588 13.0823C15.4982 13.2633 15.3815 13.4204 15.2257 13.5307C15.1361 13.5964 12.9055 15.2676 12.9055 19.0946C12.9055 19.3332 12.8106 19.5621 12.6419 19.7308C12.4731 19.8995 12.2442 19.9943 12.0055 19.9943Z" fill="#4C5665"/>
<path fill-rule="evenodd" clip-rule="evenodd" d="M7.50312 3.79978H5.70312C5.70312 3.56109 5.79795 3.33217 5.96673 3.16338C6.13551 2.9946 6.36443 2.89978 6.60312 2.89978C6.84182 2.89978 7.07074 2.9946 7.23952 3.16338C7.4083 3.33217 7.50312 3.56109 7.50312 3.79978Z" fill="#638DA0"/>
<path fill-rule="evenodd" clip-rule="evenodd" d="M6.60312 7.84817C6.36443 7.84817 6.13551 7.75338 5.96673 7.58465C5.79795 7.41592 5.70312 7.18707 5.70312 6.94845V3.79944H7.50312V6.94845C7.50312 7.18707 7.4083 7.41592 7.23952 7.58465C7.07074 7.75338 6.84182 7.84817 6.60312 7.84817Z" fill="#974D4C"/>
<path fill-rule="evenodd" clip-rule="evenodd" d="M18.7492 3.79978H16.9492C16.9492 3.56109 17.044 3.33217 17.2128 3.16338C17.3816 2.9946 17.6105 2.89978 17.8492 2.89978C18.0879 2.89978 18.3168 2.9946 18.4856 3.16338C18.6544 3.33217 18.7492 3.56109 18.7492 3.79978Z" fill="#638DA0"/>
<path fill-rule="evenodd" clip-rule="evenodd" d="M17.8492 7.84817C17.6105 7.84817 17.3816 7.75338 17.2128 7.58465C17.044 7.41592 16.9492 7.18707 16.9492 6.94845V3.79944H18.7492V6.94845C18.7492 7.18707 18.6544 7.41592 18.4856 7.58465C18.3168 7.75338 18.0879 7.84817 17.8492 7.84817Z" fill="#974D4C"/>
<path fill-rule="evenodd" clip-rule="evenodd" d="M6.60313 6.94845C6.36443 6.94845 6.13551 6.85366 5.96673 6.68493C5.79795 6.5162 5.70312 6.28735 5.70312 6.04873V2.89972C5.70312 2.6611 5.79795 2.43225 5.96673 2.26352C6.13551 2.09479 6.36443 2 6.60313 2C6.84182 2 7.07074 2.09479 7.23952 2.26352C7.4083 2.43225 7.50313 2.6611 7.50313 2.89972V6.04873C7.50313 6.28735 7.4083 6.5162 7.23952 6.68493C7.07074 6.85366 6.84182 6.94845 6.60313 6.94845ZM17.8531 6.94845C17.6144 6.94845 17.3855 6.85366 17.2167 6.68493C17.0479 6.5162 16.9531 6.28735 16.9531 6.04873V2.89972C16.9531 2.6611 17.0479 2.43225 17.2167 2.26352C17.3855 2.09479 17.6144 2 17.8531 2C18.0918 2 18.3207 2.09479 18.4895 2.26352C18.6583 2.43225 18.7531 2.6611 18.7531 2.89972V6.04873C18.7531 6.28735 18.6583 6.5162 18.4895 6.68493C18.3207 6.85366 18.0918 6.94845 17.8531 6.94845Z" fill="#DEDECA"/>
</svg>
