<svg width="16" height="17" viewBox="0 0 16 17" fill="none" xmlns="http://www.w3.org/2000/svg">
<path d="M8.11549 1.0008C3.64049 0.935485 0.0862977 4.89048 0.538923 9.34673C0.912673 13.028 3.73267 15.7592 7.4608 15.9967C7.75064 16.0153 7.99767 15.7861 7.99767 15.4955C7.99767 15.2331 7.79292 15.0145 7.53142 14.998C4.2158 14.7846 1.7283 12.2986 1.50955 8.98235C1.26417 5.24486 4.10174 2.08236 7.8408 2.00111C11.5314 1.91964 14.4689 4.80642 14.4689 8.50735V9.20923C14.4689 10.0352 13.9205 10.7895 13.1145 10.9677C11.978 11.2189 10.9686 10.3555 10.9686 9.26017V5.50704C10.9686 5.23061 10.7446 5.00642 10.4683 5.00642C10.1921 5.00642 9.96767 5.23033 9.96767 5.50673V6.06548C9.18798 5.26673 8.03549 4.83454 6.79267 5.07017C5.42174 5.33423 4.30611 6.45923 4.05611 7.86235C3.65861 10.0767 5.35861 12.0124 7.49986 12.0124C8.6683 12.0124 9.69736 11.4302 10.3336 10.5467C10.8486 11.5105 11.9067 12.1414 13.1055 11.9889C14.4942 11.8122 15.5002 10.5645 15.5002 9.16329V8.50923C15.4717 4.33736 12.2655 1.06111 8.11549 1.0008ZM7.49674 11.0092C6.11767 11.0092 4.99611 9.88642 4.99611 8.50642C4.99611 7.12642 6.11861 6.00611 7.49674 6.00611C8.87486 6.00611 9.99736 7.12892 9.99736 8.50892C9.99736 9.88892 8.87799 11.0092 7.49674 11.0092Z" fill="#ABACB1"/>
</svg>
