<svg width="27" height="28" viewBox="0 0 27 28" fill="none" xmlns="http://www.w3.org/2000/svg">
<path d="M13.5665 26.8643L13.9808 26.4501C14.2554 26.1755 14.2554 25.7303 13.9808 25.4557L3.52222 14.997H25.5468C25.9351 14.997 26.25 14.6822 26.25 14.2939V13.708C26.25 13.3197 25.9351 13.0049 25.5468 13.0049H3.52222L13.9808 2.54622C14.2554 2.27165 14.2554 1.82646 13.9808 1.55183L13.5665 1.13757C13.292 0.862998 12.8468 0.862998 12.5722 1.13757L0.205928 13.5038C-0.0686426 13.7784 -0.0686426 14.2235 0.205928 14.4982L12.5722 26.8644C12.8468 27.139 13.292 27.139 13.5665 26.8643Z" fill="#363636"/>
</svg>
