<svg width="40" height="40" viewBox="0 0 40 40" fill="none" xmlns="http://www.w3.org/2000/svg">
<path d="M26.668 16.6667L30.2503 17.7414C32.5389 18.428 33.6833 18.7713 34.3423 19.6571C35.0013 20.5428 35.0013 21.7375 35.0013 24.127V36.6668" stroke="#AF3176" stroke-width="2" stroke-linejoin="round"/>
<path d="M13.334 15L18.334 15M13.334 21.6667L18.334 21.6667" stroke="#AF3176" stroke-width="2" stroke-linecap="round" stroke-linejoin="round"/>
<path d="M20.0013 36.6668V31.6668C20.0013 30.0955 20.0013 29.3098 19.5131 28.8217C19.025 28.3335 18.2393 28.3335 16.668 28.3335H15.0013C13.43 28.3335 12.6443 28.3335 12.1561 28.8217C11.668 29.3098 11.668 30.0955 11.668 31.6668V36.6668" stroke="#AF3176" stroke-width="2" stroke-linejoin="round"/>
<path d="M3.33398 36.6667L36.6673 36.6667" stroke="#AF3176" stroke-width="2" stroke-linecap="round"/>
<path d="M5 36.6668V11.1956C5 7.01098 5 4.91869 6.31864 3.88057C7.63727 2.84245 9.57903 3.40608 13.4625 4.53332L21.7959 6.95219C24.1394 7.63244 25.3112 7.97256 25.9889 8.89959C26.6667 9.82661 26.6667 11.0892 26.6667 13.6144V36.6668" stroke="#AF3176" stroke-width="2" stroke-linecap="round" stroke-linejoin="round"/>
</svg>
