<svg width="18" height="19" viewBox="0 0 18 19" fill="none" xmlns="http://www.w3.org/2000/svg">
<path d="M13.5 2V3.5M4.5 2V3.5" stroke="#AF3176" stroke-linecap="round" stroke-linejoin="round"/>
<path d="M8.99664 10.25H9.00336M8.99664 13.25H9.00336M11.9933 10.25H12M6 10.25H6.00673M6 13.25H6.00673" stroke="#AF3176" stroke-width="1.5" stroke-linecap="round" stroke-linejoin="round"/>
<path d="M2.625 6.5H15.375" stroke="#AF3176" stroke-width="1.5" stroke-linecap="round" stroke-linejoin="round"/>
<path d="M1.875 9.68243C1.875 6.41445 1.875 4.78046 2.81409 3.76523C3.75318 2.75 5.26462 2.75 8.2875 2.75H9.7125C12.7354 2.75 14.2468 2.75 15.1859 3.76523C16.125 4.78046 16.125 6.41445 16.125 9.68243V10.0676C16.125 13.3355 16.125 14.9695 15.1859 15.9848C14.2468 17 12.7354 17 9.7125 17H8.2875C5.26462 17 3.75318 17 2.81409 15.9848C1.875 14.9695 1.875 13.3355 1.875 10.0676V9.68243Z" stroke="#AF3176" stroke-linecap="round" stroke-linejoin="round"/>
<path d="M2.25 6.5H15.75" stroke="#AF3176" stroke-linecap="round" stroke-linejoin="round"/>
</svg>
