<svg width="131" height="60" viewBox="0 0 131 60" fill="none" xmlns="http://www.w3.org/2000/svg">
<path d="M26.6441 37.9173H22.5238L25.0989 22.0914H29.2197L26.6441 37.9173ZM19.0575 22.0914L15.1294 32.9766L14.6646 30.6326L14.665 30.6334L13.2786 23.5163C13.2786 23.5163 13.1109 22.0914 11.3241 22.0914H4.83011L4.75391 22.3594C4.75391 22.3594 6.73977 22.7725 9.06387 24.1683L12.6436 37.9177H16.9366L23.4919 22.0914H19.0575ZM51.4659 37.9173H55.2492L51.9506 22.091H48.6384C47.1089 22.091 46.7364 23.2704 46.7364 23.2704L40.5913 37.9173H44.8864L45.7454 35.5665H50.9833L51.4659 37.9173ZM46.932 32.3191L49.0969 26.3967L50.3148 32.3191H46.932ZM40.9134 25.8972L41.5014 22.4986C41.5014 22.4986 39.687 21.8086 37.7956 21.8086C35.7509 21.8086 30.8952 22.7023 30.8952 27.0478C30.8952 31.1363 36.5941 31.1871 36.5941 33.3347C36.5941 35.4823 31.4824 35.0975 29.7954 33.7432L29.1828 37.2967C29.1828 37.2967 31.0226 38.1904 33.8336 38.1904C36.6454 38.1904 40.8872 36.7345 40.8872 32.7721C40.8872 28.6573 35.137 28.2742 35.137 26.4852C35.1374 24.6957 39.1502 24.9256 40.9134 25.8972Z" fill="#024CC6"/>
<path d="M14.665 30.6358L13.2786 23.5187C13.2786 23.5187 13.1109 22.0938 11.3241 22.0938H4.83011L4.75391 22.3617C4.75391 22.3617 7.87515 23.0086 10.869 25.4322C13.7316 27.7486 14.665 30.6358 14.665 30.6358Z" fill="#E6A540"/>
<path d="M107 43H94V18H107V43Z" fill="#FF5F00"/>
<path d="M94.8618 30.0008C94.8597 27.5776 95.4112 25.1857 96.4747 23.0061C97.5381 20.8265 99.0856 18.9164 101 17.4204C98.6293 15.5653 95.7824 14.4116 92.7845 14.0913C89.7865 13.771 86.7586 14.2971 84.0467 15.6092C81.3348 16.9214 79.0483 18.9669 77.4485 21.5118C75.8488 24.0567 75.0003 26.9985 75 30.0008C75.0006 33.0028 75.8492 35.9442 77.4488 38.4887C79.0485 41.0332 81.3347 43.0784 84.0462 44.3905C86.7577 45.7026 89.7852 46.2288 92.7828 45.9089C95.7804 45.5889 98.6272 44.4358 100.998 42.5813C99.0841 41.0848 97.5372 39.1746 96.4742 36.9951C95.4111 34.8155 94.8598 32.4238 94.8618 30.0008Z" fill="#EB001B"/>
<path d="M126 30C126 33.0022 125.184 35.9438 123.646 38.4886C122.107 41.0334 119.909 43.0787 117.301 44.3908C114.694 45.703 111.782 46.2289 108.9 45.9087C106.017 45.5884 103.279 44.4348 101 42.5797C104.594 39.65 106.902 35.1044 106.902 30C106.902 24.8956 104.594 20.35 101 17.4203C103.279 15.5652 106.017 14.4116 108.9 14.0913C111.782 13.7711 114.694 14.297 117.301 15.6092C119.909 16.9213 122.107 18.9666 123.646 21.5114C125.184 24.0562 126 26.9978 126 30Z" fill="#F79E1B"/>
</svg>
