<svg width="25" height="24" viewBox="0 0 25 24" fill="none" xmlns="http://www.w3.org/2000/svg">
<path d="M12.3338 13.5C12.2345 13.4994 12.1365 13.4767 12.0471 13.4334L2.04712 8.70671C1.93259 8.65287 1.83575 8.56754 1.76792 8.4607C1.70008 8.35386 1.66406 8.22993 1.66406 8.10337C1.66406 7.97682 1.70008 7.85288 1.76792 7.74604C1.83575 7.6392 1.93259 7.55388 2.04712 7.50004L12.0471 2.77337C12.1358 2.73175 12.2325 2.71017 12.3305 2.71017C12.4284 2.71017 12.5251 2.73175 12.6138 2.77337L22.6138 7.50004C22.7283 7.55388 22.8252 7.6392 22.893 7.74604C22.9608 7.85288 22.9968 7.97682 22.9968 8.10337C22.9968 8.22993 22.9608 8.35386 22.893 8.4607C22.8252 8.56754 22.7283 8.65287 22.6138 8.70671L12.6138 13.4334C12.5264 13.4757 12.4309 13.4985 12.3338 13.5ZM3.89379 8.1067L12.3338 12.1067L20.7738 8.1067L12.3338 4.12004L3.89379 8.1067Z" fill="#67676A"/>
<path d="M12.3375 17.44C12.2382 17.4395 12.1403 17.4167 12.0509 17.3734L2.05087 12.6667C1.96999 12.6306 1.89712 12.5786 1.83653 12.514C1.77594 12.4494 1.72884 12.3733 1.69798 12.2902C1.66713 12.2072 1.65314 12.1188 1.65683 12.0303C1.66052 11.9418 1.68182 11.8549 1.71948 11.7747C1.75714 11.6945 1.81041 11.6226 1.87617 11.5632C1.94193 11.5039 2.01886 11.4582 2.10248 11.4289C2.18609 11.3996 2.27471 11.3873 2.36314 11.3926C2.45158 11.398 2.53806 11.4209 2.61754 11.46L12.3375 16.04L22.0509 11.4467C22.131 11.4091 22.2177 11.3876 22.3061 11.3834C22.3945 11.3793 22.4829 11.3926 22.5662 11.4227C22.6494 11.4527 22.726 11.4988 22.7914 11.5584C22.8568 11.618 22.9099 11.6899 22.9475 11.77C22.9852 11.8501 23.0067 11.9369 23.0108 12.0253C23.0149 12.1137 23.0016 12.2021 22.9716 12.2853C22.9416 12.3686 22.8954 12.4451 22.8358 12.5106C22.7762 12.576 22.7043 12.6291 22.6242 12.6667L12.6242 17.3934C12.5332 17.4298 12.4354 17.4457 12.3375 17.44Z" fill="#67676A"/>
<path d="M12.3384 21.38C12.2391 21.3794 12.1411 21.3566 12.0517 21.3133L2.05173 16.5867C1.89506 16.5095 1.77494 16.3739 1.71719 16.2091C1.65944 16.0442 1.66868 15.8633 1.74292 15.7052C1.81716 15.5472 1.95047 15.4245 2.11418 15.3637C2.2779 15.3029 2.45895 15.3087 2.6184 15.38L12.3384 20L22.0517 15.4067C22.1312 15.3675 22.2177 15.3446 22.3061 15.3392C22.3946 15.3339 22.4832 15.3462 22.5668 15.3755C22.6504 15.4048 22.7273 15.4505 22.7931 15.5099C22.8589 15.5692 22.9121 15.6411 22.9498 15.7213C22.9875 15.8015 23.0088 15.8884 23.0124 15.9769C23.0161 16.0654 23.0021 16.1538 22.9713 16.2369C22.9404 16.3199 22.8933 16.396 22.8327 16.4606C22.7722 16.5253 22.6993 16.5772 22.6184 16.6133L12.6251 21.3333C12.5341 21.3698 12.4362 21.3857 12.3384 21.38Z" fill="#67676A"/>
</svg>
