<svg width="20" height="20" viewBox="0 0 20 20" fill="none" xmlns="http://www.w3.org/2000/svg">
<g clip-path="url(#clip0_2732_1320)">
<path d="M10.0013 18.3333C5.3989 18.3333 1.66797 14.6024 1.66797 10C1.66797 5.39763 5.39893 1.66667 10.0013 1.66667C13.7327 1.66667 16.8561 4.11908 17.9179 7.50001H15.8346" stroke="#AF3176" stroke-width="1.5" stroke-linecap="round" stroke-linejoin="round"/>
<path d="M10 6.66667V10L11.6667 11.6667" stroke="#AF3176" stroke-width="1.5" stroke-linecap="round" stroke-linejoin="round"/>
<path d="M18.2959 10.8333C18.3207 10.5591 18.3333 10.2811 18.3333 10M12.5 18.3333C12.7847 18.2396 13.0627 18.1304 13.3333 18.0065M17.3255 14.1667C17.4862 13.857 17.6296 13.536 17.7542 13.2052M15.1604 16.8577C15.4475 16.6201 15.7193 16.3632 15.974 16.0887" stroke="#AF3176" stroke-width="1.5" stroke-linecap="round" stroke-linejoin="round"/>
</g>
<defs>
<clipPath id="clip0_2732_1320">
<rect width="20" height="20" fill="white"/>
</clipPath>
</defs>
</svg>
