<svg width="25" height="24" viewBox="0 0 25 24" fill="none" xmlns="http://www.w3.org/2000/svg">
<path fill-rule="evenodd" clip-rule="evenodd" d="M0.501057 8.14455C0.5 8.41441 0.5 8.69921 0.5 9V15.6667C0.5 18.4951 0.5 19.9093 1.37868 20.788C2.25736 21.6667 3.67157 21.6667 6.5 21.6667H18.5C21.3284 21.6667 22.7426 21.6667 23.6213 20.788C24.5 19.9093 24.5 18.4951 24.5 15.6667V9C24.5 8.69921 24.5 8.41441 24.4989 8.14455L13.4713 14.271C12.8672 14.6066 12.1328 14.6066 11.5287 14.271L0.501057 8.14455ZM0.57586 6.00264C0.715518 6.01317 0.855182 6.05336 0.985643 6.12584L12.5 12.5227L24.0144 6.12584C24.1448 6.05336 24.2845 6.01318 24.4241 6.00264C24.3284 5.0261 24.1116 4.36901 23.6213 3.87868C22.7426 3 21.3284 3 18.5 3H6.5C3.67157 3 2.25736 3 1.37868 3.87868C0.888351 4.36901 0.67164 5.0261 0.57586 6.00264Z" fill="#772432"/>
</svg>
