<svg width="40" height="40" viewBox="0 0 40 40" fill="none" xmlns="http://www.w3.org/2000/svg">
<path d="M30 3.33337V6.66671M10 3.33337V6.66671" stroke="#AF3176" stroke-width="2" stroke-linecap="round" stroke-linejoin="round"/>
<path d="M5 13.3334H35" stroke="#AF3176" stroke-width="2" stroke-linecap="round" stroke-linejoin="round"/>
<path d="M4.16602 20.4054C4.16602 13.1432 4.16602 9.51214 6.25288 7.25607C8.33974 5 11.6985 5 18.416 5H21.5827C28.3002 5 31.659 5 33.7458 7.25607C35.8327 9.51214 35.8327 13.1432 35.8327 20.4054V21.2613C35.8327 28.5234 35.8327 32.1545 33.7458 34.4106C31.659 36.6667 28.3002 36.6667 21.5827 36.6667H18.416C11.6985 36.6667 8.33974 36.6667 6.25288 34.4106C4.16602 32.1545 4.16602 28.5234 4.16602 21.2613V20.4054Z" stroke="#AF3176" stroke-width="2" stroke-linecap="round" stroke-linejoin="round"/>
<path d="M20 29.1667V30.8334M20 29.1667C18.554 29.1667 17.2801 28.4302 16.5329 27.3118M20 29.1667C21.446 29.1667 22.7199 28.4302 23.4671 27.3118M20 20.8334C21.4461 20.8334 22.7201 21.5701 23.4673 22.6886M20 20.8334C18.5539 20.8334 17.2799 21.5701 16.5327 22.6886M20 20.8334V19.1667M25 21.6667L23.4673 22.6886M15.0005 28.3334L16.5329 27.3118M15 21.6667L16.5327 22.6886M24.9995 28.3334L23.4671 27.3118M23.4673 22.6886C23.9091 23.35 24.1667 24.145 24.1667 25.0001C24.1667 25.8553 23.909 26.6503 23.4671 27.3118M16.5327 22.6886C16.0909 23.35 15.8333 24.145 15.8333 25.0001C15.8333 25.8553 16.091 26.6503 16.5329 27.3118" stroke="#AF3176" stroke-width="2" stroke-linecap="round"/>
</svg>
