<svg width="102" height="24" viewBox="0 0 102 24" fill="none" xmlns="http://www.w3.org/2000/svg">
<path d="M4 11L4 21" stroke="#67676A" stroke-width="1.5" stroke-linecap="round" stroke-linejoin="round"/>
<path d="M19 13L19 21" stroke="#67676A" stroke-width="1.5" stroke-linecap="round" stroke-linejoin="round"/>
<path d="M19 3L19 7" stroke="#67676A" stroke-width="1.5" stroke-linecap="round" stroke-linejoin="round"/>
<path d="M11.5 3L11.5 13" stroke="#67676A" stroke-width="1.5" stroke-linecap="round" stroke-linejoin="round"/>
<path d="M4 3L4 5" stroke="#67676A" stroke-width="1.5" stroke-linecap="round" stroke-linejoin="round"/>
<path d="M11.5 19L11.5 21" stroke="#67676A" stroke-width="1.5" stroke-linecap="round" stroke-linejoin="round"/>
<path d="M2 9.5C2 9.03406 2 8.80109 2.07612 8.61732C2.17761 8.37229 2.37229 8.17761 2.61732 8.07612C2.80109 8 3.03406 8 3.5 8H4.5C4.96594 8 5.19891 8 5.38268 8.07612C5.62771 8.17761 5.82239 8.37229 5.92388 8.61732C6 8.80109 6 9.03406 6 9.5C6 9.96594 6 10.1989 5.92388 10.3827C5.82239 10.6277 5.62771 10.8224 5.38268 10.9239C5.19891 11 4.96594 11 4.5 11H3.5C3.03406 11 2.80109 11 2.61732 10.9239C2.37229 10.8224 2.17761 10.6277 2.07612 10.3827C2 10.1989 2 9.96594 2 9.5Z" stroke="#67676A" stroke-width="1.5" stroke-linecap="round" stroke-linejoin="round"/>
<path d="M17 11.5C17 11.0341 17 10.8011 17.0761 10.6173C17.1776 10.3723 17.3723 10.1776 17.6173 10.0761C17.8011 10 18.0341 10 18.5 10H19.5C19.9659 10 20.1989 10 20.3827 10.0761C20.6277 10.1776 20.8224 10.3723 20.9239 10.6173C21 10.8011 21 11.0341 21 11.5C21 11.9659 21 12.1989 20.9239 12.3827C20.8224 12.6277 20.6277 12.8224 20.3827 12.9239C20.1989 13 19.9659 13 19.5 13H18.5C18.0341 13 17.8011 13 17.6173 12.9239C17.3723 12.8224 17.1776 12.6277 17.0761 12.3827C17 12.1989 17 11.9659 17 11.5Z" stroke="#67676A" stroke-width="1.5" stroke-linecap="round" stroke-linejoin="round"/>
<path d="M9.5 14.5C9.5 14.0341 9.5 13.8011 9.57612 13.6173C9.67761 13.3723 9.87229 13.1776 10.1173 13.0761C10.3011 13 10.5341 13 11 13H12C12.4659 13 12.6989 13 12.8827 13.0761C13.1277 13.1776 13.3224 13.3723 13.4239 13.6173C13.5 13.8011 13.5 14.0341 13.5 14.5C13.5 14.9659 13.5 15.1989 13.4239 15.3827C13.3224 15.6277 13.1277 15.8224 12.8827 15.9239C12.6989 16 12.4659 16 12 16H11C10.5341 16 10.3011 16 10.1173 15.9239C9.87229 15.8224 9.67761 15.6277 9.57612 15.3827C9.5 15.1989 9.5 14.9659 9.5 14.5Z" stroke="#67676A" stroke-width="1.5" stroke-linecap="round" stroke-linejoin="round"/>
<path d="M39.536 6.848V8.032H34.688V11.792H38.624V12.976H34.688V18H33.232V6.848H39.536ZM42.0465 7.808C41.7692 7.808 41.5345 7.712 41.3425 7.52C41.1505 7.328 41.0545 7.09333 41.0545 6.816C41.0545 6.53867 41.1505 6.304 41.3425 6.112C41.5345 5.92 41.7692 5.824 42.0465 5.824C42.3132 5.824 42.5372 5.92 42.7185 6.112C42.9105 6.304 43.0065 6.53867 43.0065 6.816C43.0065 7.09333 42.9105 7.328 42.7185 7.52C42.5372 7.712 42.3132 7.808 42.0465 7.808ZM42.7505 9.232V18H41.2945V9.232H42.7505ZM46.688 6.16V18H45.232V6.16H46.688ZM50.9455 10.432V15.6C50.9455 16.0267 51.0362 16.3307 51.2175 16.512C51.3988 16.6827 51.7135 16.768 52.1615 16.768H53.2335V18H51.9215C51.1108 18 50.5028 17.8133 50.0975 17.44C49.6922 17.0667 49.4895 16.4533 49.4895 15.6V10.432H48.3535V9.232H49.4895V7.024H50.9455V9.232H53.2335V10.432H50.9455ZM62.9976 13.28C62.9976 13.5573 62.9816 13.8507 62.9496 14.16H55.9416C55.995 15.024 56.2883 15.7013 56.8216 16.192C57.3656 16.672 58.0216 16.912 58.7896 16.912C59.419 16.912 59.9416 16.768 60.3576 16.48C60.7843 16.1813 61.083 15.7867 61.2536 15.296H62.8216C62.587 16.1387 62.1176 16.8267 61.4136 17.36C60.7096 17.8827 59.835 18.144 58.7896 18.144C57.9576 18.144 57.211 17.9573 56.5496 17.584C55.899 17.2107 55.387 16.6827 55.0136 16C54.6403 15.3067 54.4536 14.5067 54.4536 13.6C54.4536 12.6933 54.635 11.8987 54.9976 11.216C55.3603 10.5333 55.867 10.0107 56.5176 9.648C57.179 9.27467 57.9363 9.088 58.7896 9.088C59.6216 9.088 60.3576 9.26933 60.9976 9.632C61.6376 9.99467 62.1283 10.496 62.4696 11.136C62.8216 11.7653 62.9976 12.48 62.9976 13.28ZM61.4936 12.976C61.4936 12.4213 61.371 11.9467 61.1256 11.552C60.8803 11.1467 60.5443 10.8427 60.1176 10.64C59.7016 10.4267 59.2376 10.32 58.7256 10.32C57.9896 10.32 57.3603 10.5547 56.8376 11.024C56.3256 11.4933 56.0323 12.144 55.9576 12.976H61.4936ZM66.3755 10.656C66.6315 10.1547 66.9942 9.76533 67.4635 9.488C67.9435 9.21067 68.5248 9.072 69.2075 9.072V10.576H68.8235C67.1915 10.576 66.3755 11.4613 66.3755 13.232V18H64.9195V9.232H66.3755V10.656Z" fill="#363636"/>
<g clip-path="url(#clip0_3885_838)">
<path d="M90.0008 15L85.7578 10.757L87.1728 9.343L90.0008 12.172L92.8288 9.343L94.2438 10.757L90.0008 15Z" fill="#363636"/>
</g>
<defs>
<clipPath id="clip0_3885_838">
<rect width="24" height="24" fill="white" transform="translate(78)"/>
</clipPath>
</defs>
</svg>
