<svg width="16" height="18" viewBox="0 0 16 18" fill="none" xmlns="http://www.w3.org/2000/svg">
<path d="M15.9982 9.18419C15.9982 8.64609 15.9505 8.13523 15.8688 7.638H8.17188V10.7099H12.5789C12.3813 11.718 11.8024 12.5695 10.9441 13.1484V15.1919H13.5733C15.1127 13.7683 15.9982 11.6704 15.9982 9.18419Z" fill="#4285F4"/>
<path d="M8.17393 17.1733C10.3808 17.1733 12.2267 16.4377 13.5754 15.1912L10.9462 13.1478C10.2105 13.6382 9.27737 13.9379 8.17393 13.9379C6.04195 13.9379 4.23693 12.5007 3.58985 10.5594H0.878906V12.6642C2.22075 15.3342 4.97937 17.1733 8.17393 17.1733Z" fill="#34A853"/>
<path d="M3.58961 10.5595C3.41933 10.0691 3.33078 9.54459 3.33078 8.99968C3.33078 8.45477 3.42614 7.93029 3.58961 7.43987V5.33514H0.878671C0.320136 6.43859 0 7.67827 0 8.99968C0 10.3211 0.320136 11.5608 0.878671 12.6642L3.58961 10.5595Z" fill="#FBBC05"/>
<path d="M8.17393 4.06202C9.37955 4.06202 10.4557 4.47752 11.3072 5.28807L13.6367 2.95857C12.2267 1.63716 10.3808 0.826599 8.17393 0.826599C4.97937 0.826599 2.22075 2.66568 0.878906 5.33575L3.58985 7.44048C4.23693 5.49923 6.04195 4.06202 8.17393 4.06202Z" fill="#EA4335"/>
</svg>
