<svg width="24" height="24" viewBox="0 0 24 24" fill="none" xmlns="http://www.w3.org/2000/svg">
<path d="M16.2251 7.77417H7.77344V16.2258H16.2251V7.77417Z" fill="white"/>
<path d="M16.2251 16.2258H7.77344V20.0367H16.2251V16.2258Z" fill="#34A853"/>
<path d="M16.2274 3.96326H5.23513C4.89898 3.96568 4.57728 4.10029 4.33958 4.33799C4.10188 4.57569 3.96727 4.89739 3.96484 5.23355V16.2258H7.77571V7.77412H16.2274V3.96326Z" fill="#4285F4"/>
<path d="M3.96484 16.2258V18.7664C3.96727 19.1026 4.10188 19.4243 4.33958 19.662C4.57728 19.8997 4.89898 20.0343 5.23513 20.0367H7.77571V16.2258H3.96484Z" fill="#188038"/>
<path d="M20.0374 7.77417H16.2266V16.2258H20.0374V7.77417Z" fill="#FBBC04"/>
<path d="M20.0374 7.77413V5.23355C20.035 4.89739 19.9004 4.57569 19.6627 4.33799C19.425 4.10029 19.1033 3.96568 18.7671 3.96326H16.2266V7.77413H20.0374Z" fill="#1967D2"/>
<path d="M16.2266 20.0367L20.0374 16.2258H16.2266V20.0367Z" fill="#EA4335"/>
<path d="M13.1971 11.2431L12.793 10.6709L14.2311 9.63184H14.7768V14.5231H13.9948V10.6318L13.1971 11.2431Z" fill="#2A83F8"/>
<path d="M11.3998 11.9505C11.5787 11.83 11.7258 11.668 11.8285 11.4783C11.9312 11.2885 11.9865 11.0768 11.9895 10.8611C11.9895 10.1006 11.312 9.48575 10.4753 9.48575C10.1415 9.47503 9.81382 9.57705 9.54509 9.77536C9.27636 9.97368 9.08225 10.2567 8.99407 10.5788L9.66521 10.8469C9.70109 10.6743 9.79677 10.5199 9.93537 10.4109C10.074 10.3019 10.2466 10.2454 10.4228 10.2513C10.5196 10.2421 10.6172 10.2531 10.7094 10.2837C10.8017 10.3142 10.8866 10.3636 10.9588 10.4287C11.0309 10.4938 11.0887 10.5732 11.1285 10.6619C11.1684 10.7506 11.1893 10.8465 11.19 10.9437C11.1908 11.0409 11.1713 11.1372 11.1328 11.2264C11.0944 11.3157 11.0378 11.3959 10.9666 11.4621C10.8954 11.5284 10.8113 11.579 10.7195 11.611C10.6277 11.6429 10.5303 11.6554 10.4334 11.6477V11.6485H10.4239L10.4228 11.6486L10.4212 11.6485H10.0197V12.3051H10.4781L10.4821 12.3049C10.5925 12.2946 10.7038 12.3075 10.8089 12.3428C10.914 12.378 11.0106 12.4347 11.0926 12.5094C11.1745 12.5841 11.24 12.6751 11.2847 12.7765C11.3295 12.8779 11.3527 12.9875 11.3527 13.0984C11.3527 13.2093 11.3295 13.3189 11.2847 13.4203C11.24 13.5217 11.1745 13.6127 11.0926 13.6874C11.0106 13.762 10.914 13.8188 10.8089 13.854C10.7038 13.8893 10.5925 13.9021 10.4821 13.8919C10.3564 13.8932 10.2317 13.8684 10.1161 13.819C10.0005 13.7697 9.89636 13.6968 9.81038 13.6051C9.75389 13.5426 9.70789 13.4715 9.67419 13.3943L9.55604 13.1065L8.84766 13.3804C8.95267 14.1138 9.64201 14.6812 10.4753 14.6812C11.3832 14.6812 12.1182 14.0105 12.1182 13.1856C12.1141 12.9355 12.0459 12.6906 11.9201 12.4744C11.7944 12.2581 11.6152 12.0778 11.3998 11.9505Z" fill="#2A83F8"/>
</svg>
