<svg width="25" height="24" viewBox="0 0 25 24" fill="none" xmlns="http://www.w3.org/2000/svg">
<path d="M16.1641 11C16.1641 12.933 14.5971 14.5 12.6641 14.5C10.7311 14.5 9.16406 12.933 9.16406 11C9.16406 9.067 10.7311 7.5 12.6641 7.5C14.5971 7.5 16.1641 9.067 16.1641 11Z" stroke="#67676A" stroke-width="1.5"/>
<path d="M12.6641 2C17.5346 2 21.6641 6.03298 21.6641 10.9258C21.6641 15.8965 17.4674 19.3847 13.5911 21.7567C13.3086 21.9162 12.9891 22 12.6641 22C12.339 22 12.0196 21.9162 11.7371 21.7567C7.86796 19.3616 3.66406 15.9137 3.66406 10.9258C3.66406 6.03298 7.7935 2 12.6641 2Z" stroke="#67676A" stroke-width="1.5"/>
</svg>
