<svg width="11" height="13" viewBox="0 0 11 13" fill="none" xmlns="http://www.w3.org/2000/svg">
<g clip-path="url(#clip0_3410_17541)">
<path d="M9.375 5.74908H9V4.28423C9 2.21236 7.33359 0.506107 5.26172 0.499076C3.1875 0.492045 1.5 2.1772 1.5 4.24908V5.74908H1.125C0.503906 5.74908 0 6.25298 0 6.87408V11.3741C0 11.9952 0.503906 12.4991 1.125 12.4991H9.375C9.99609 12.4991 10.5 11.9952 10.5 11.3741V6.87408C10.5 6.25298 9.99609 5.74908 9.375 5.74908ZM2.25 4.24908C2.25 2.59439 3.59531 1.24908 5.25 1.24908C6.90469 1.24908 8.25 2.59439 8.25 4.24908V5.74908H2.25V4.24908ZM9.375 11.7491H1.125C0.91875 11.7491 0.75 11.5803 0.75 11.3741V6.87408C0.75 6.66783 0.91875 6.49908 1.125 6.49908H9.375C9.58125 6.49908 9.75 6.66783 9.75 6.87408V11.3741C9.75 11.5803 9.58125 11.7491 9.375 11.7491Z" fill="#67676A"/>
</g>
<defs>
<clipPath id="clip0_3410_17541">
<rect width="10.5" height="12" fill="white" transform="translate(0 0.5)"/>
</clipPath>
</defs>
</svg>
