<svg width="24" height="24" viewBox="0 0 24 24" fill="none" xmlns="http://www.w3.org/2000/svg">
<g clip-path="url(#clip0_3575_20813)">
<path d="M6.10156 6.74255H21.4964V17.2573H6.10156V6.74255Z" fill="#4C97E3"/>
<path d="M13.799 10.8275L21.4964 17.2516H6.10156L13.799 10.8275Z" fill="#E3EDF0"/>
<path d="M13.799 13.2944L6.10156 6.74255H21.4964L13.799 13.2944Z" fill="#52C1FF"/>
<path d="M11.8288 20.7255L2.06355 19.3175C1.74009 19.2708 1.5 18.9934 1.5 18.6664V5.33362C1.5 5.00652 1.74009 4.72913 2.06355 4.6825L11.8288 3.27443C12.225 3.21729 12.5798 3.5249 12.5798 3.92554V20.0744C12.5798 20.4751 12.225 20.7827 11.8288 20.7255Z" fill="#4C97E3"/>
<path d="M7.07852 9.18066C5.50053 9.18066 4.39844 10.3573 4.39844 12.0421C4.39844 13.6773 5.46592 14.8193 6.99438 14.8193C8.29023 14.8193 9.68498 13.9238 9.68498 11.9578C9.68498 10.3227 8.61318 9.18066 7.07852 9.18066ZM8.42882 11.9895C8.42882 13.0472 7.84327 13.8148 7.03643 13.8148C6.22968 13.8148 5.64412 13.056 5.64412 12.0105C5.64412 11.1019 6.08113 10.1851 7.0575 10.1851C8.14224 10.1852 8.42882 11.3654 8.42882 11.9895Z" fill="white"/>
</g>
<defs>
<clipPath id="clip0_3575_20813">
<rect width="20" height="20" fill="white" transform="translate(1.5 2)"/>
</clipPath>
</defs>
</svg>
