<svg width="15" height="15" viewBox="0 0 15 15" fill="none" xmlns="http://www.w3.org/2000/svg">
<path fill-rule="evenodd" clip-rule="evenodd" d="M7.39693 13.4678C8.71331 12.7735 12.8307 10.2735 12.8307 6.16665C12.8307 2.94499 10.2191 0.333313 6.9974 0.333313C3.77573 0.333313 1.16406 2.94499 1.16406 6.16665C1.16406 10.2735 5.28148 12.7735 6.59786 13.4678C6.84982 13.6007 7.14497 13.6007 7.39693 13.4678ZM7 8.66666C8.38071 8.66666 9.5 7.54737 9.5 6.16666C9.5 4.78594 8.38071 3.66666 7 3.66666C5.61929 3.66666 4.5 4.78594 4.5 6.16666C4.5 7.54737 5.61929 8.66666 7 8.66666Z" fill="#AF3176"/>
</svg>
