<svg width="25" height="24" viewBox="0 0 25 24" fill="none" xmlns="http://www.w3.org/2000/svg">
<path fill-rule="evenodd" clip-rule="evenodd" d="M12.7793 24C19.4067 24 24.7793 18.6274 24.7793 12C24.7793 5.37258 19.4067 0 12.7793 0C6.15188 0 0.779297 5.37258 0.779297 12C0.779297 18.6274 6.15188 24 12.7793 24ZM18.8809 8.64018C19.2344 8.21591 19.1771 7.58534 18.7528 7.23178C18.3285 6.87821 17.698 6.93554 17.3444 7.35982L12.0798 13.6774C11.7331 14.0934 11.5382 14.3238 11.3825 14.4653L11.3766 14.4707L11.3702 14.4659C11.2024 14.339 10.9874 14.1272 10.6045 13.7443L8.15307 11.2929C7.76255 10.9024 7.12938 10.9024 6.73886 11.2929C6.34833 11.6834 6.34833 12.3166 6.73886 12.7071L9.19025 15.1585L9.23108 15.1993L9.23111 15.1994C9.55759 15.526 9.87167 15.8402 10.1639 16.0611C10.4913 16.3087 10.92 16.5415 11.4694 16.5165C12.0188 16.4916 12.4247 16.221 12.7283 15.9448C12.9993 15.6983 13.2837 15.3569 13.5793 15.0021L13.5793 15.0021L13.6162 14.9577L18.8809 8.64018Z" fill="#772432"/>
</svg>
