<svg width="40" height="40" viewBox="0 0 40 40" fill="none" xmlns="http://www.w3.org/2000/svg">
<path d="M34.6234 30C35.8722 30 36.8656 29.2141 37.7574 28.1152C39.5832 25.8657 36.5855 24.0681 35.4423 23.1877C34.28 22.2927 32.9824 21.7857 31.6667 21.6667M30 18.3333C32.3012 18.3333 34.1667 16.4679 34.1667 14.1667C34.1667 11.8655 32.3012 10 30 10" stroke="#AF3176" stroke-width="2" stroke-linecap="round"/>
<path d="M5.37595 30C4.12711 30 3.13379 29.2141 2.24193 28.1152C0.416163 25.8657 3.4138 24.0681 4.55709 23.1877C5.71931 22.2927 7.01699 21.7857 8.33268 21.6667M9.16602 18.3333C6.86483 18.3333 4.99935 16.4679 4.99935 14.1667C4.99935 11.8655 6.86483 10 9.16602 10" stroke="#AF3176" stroke-width="2" stroke-linecap="round"/>
<path d="M13.4724 25.1852C11.7694 26.2382 7.30432 28.3884 10.0238 31.079C11.3523 32.3933 12.8319 33.3333 14.6921 33.3333H25.3066C27.1668 33.3333 28.6464 32.3933 29.9748 31.079C32.6944 28.3884 28.2293 26.2382 26.5263 25.1852C22.5329 22.7159 17.4658 22.7159 13.4724 25.1852Z" stroke="#AF3176" stroke-width="2" stroke-linecap="round" stroke-linejoin="round"/>
<path d="M25.8327 12.5C25.8327 15.7216 23.221 18.3333 19.9993 18.3333C16.7777 18.3333 14.166 15.7216 14.166 12.5C14.166 9.2783 16.7777 6.66663 19.9993 6.66663C23.221 6.66663 25.8327 9.2783 25.8327 12.5Z" stroke="#AF3176" stroke-width="2"/>
</svg>
