<svg width="40" height="40" viewBox="0 0 40 40" fill="none" xmlns="http://www.w3.org/2000/svg">
<path d="M23.334 3.33337H16.6673C11.2019 3.33337 8.46924 3.33337 6.53216 4.68973C5.8155 5.19155 5.19216 5.81489 4.69034 6.53155C3.33398 8.46863 3.33398 11.2013 3.33398 16.6667C3.33398 22.1321 3.33398 24.8648 4.69034 26.8019C5.19216 27.5185 5.8155 28.1419 6.53216 28.6437C8.46924 30 11.2019 30 16.6673 30H23.334C28.7994 30 31.5321 30 33.4691 28.6437C34.1858 28.1419 34.8091 27.5185 35.311 26.8019C36.6673 24.8648 36.6673 22.1321 36.6673 16.6667C36.6673 11.2013 36.6673 8.46863 35.311 6.53155C34.8091 5.81489 34.1858 5.19155 33.4691 4.68973C31.5321 3.33337 28.7994 3.33337 23.334 3.33337Z" stroke="#AF3176" stroke-width="2" stroke-linecap="round"/>
<path d="M24.1673 36.6667L23.6415 35.9686C22.4561 34.3948 22.1622 31.9906 22.9119 30M15.834 36.6667L16.3598 35.9686C17.5452 34.3948 17.8391 31.9906 17.0894 30" stroke="#AF3176" stroke-width="2" stroke-linecap="round"/>
<path d="M11.668 36.6667H28.3346" stroke="#AF3176" stroke-width="2" stroke-linecap="round"/>
<path d="M13.334 23.3333C16.3981 19.0077 23.5319 18.7716 26.6673 23.3333M23.334 13.3333C23.334 15.1743 21.8416 16.6667 20.0007 16.6667C18.1597 16.6667 16.6673 15.1743 16.6673 13.3333C16.6673 11.4924 18.1597 10 20.0007 10C21.8416 10 23.334 11.4924 23.334 13.3333Z" stroke="#AF3176" stroke-width="2" stroke-linecap="round"/>
</svg>
