<svg width="80" height="80" viewBox="0 0 80 80" fill="none" xmlns="http://www.w3.org/2000/svg">
<rect width="80" height="80" rx="40" fill="#F5F5F5"/>
<path d="M24.9998 29.5C24.9998 21.2157 31.7156 14.5 39.9998 14.5C48.2841 14.5 54.9998 21.2157 54.9998 29.5V38.6634C54.9998 38.9439 54.9998 39.0841 55.0188 39.2209C55.0431 39.3959 55.0905 39.567 55.1597 39.7296C55.2138 39.8566 55.286 39.9769 55.4303 40.2174L55.5452 40.4089C58.4763 45.2941 59.9419 47.7368 59.0813 49.6447C58.981 49.8671 58.8605 50.0799 58.7214 50.2805C57.5281 52 54.6795 52 48.9824 52H31.0174C25.3202 52 22.4717 52 21.2784 50.2804C21.1393 50.08 21.0188 49.8672 20.9185 49.6447C20.0579 47.7368 21.5234 45.2942 24.4545 40.4089L24.5694 40.2174C24.7137 39.9769 24.7859 39.8566 24.84 39.7296C24.9092 39.567 24.9566 39.3959 24.9809 39.2209C24.9998 39.0841 24.9998 38.9439 24.9998 38.6634V29.5Z" fill="#7E869E" fill-opacity="0.25"/>
<path d="M46.1 53.0002C46.1828 53.0002 46.2503 53.0674 46.2472 53.1502C46.1995 54.4219 45.5473 55.6335 44.4194 56.5358C43.2473 57.4735 41.6576 58.0002 40 58.0002C38.3424 58.0002 36.7527 57.4735 35.5806 56.5358C34.4527 55.6335 33.8005 54.4219 33.7528 53.1502C33.7497 53.0675 33.8172 53.0002 33.9 53.0002L40 53.0002L46.1 53.0002Z" fill="#CDCDD0"/>
</svg>
