<svg width="24" height="24" viewBox="0 0 24 24" fill="none" xmlns="http://www.w3.org/2000/svg">
<path d="M16.4598 3H6.54018C4.30885 3 2.5 4.80885 2.5 7.04018V16.9598C2.5 19.1911 4.30885 21 6.54018 21H16.4598C18.6911 21 20.5 19.1911 20.5 16.9598V7.04018C20.5 4.80885 18.6911 3 16.4598 3Z" fill="#673276"/>
<path d="M15.5927 9.82095L15.5552 9.78354H15.0066L12.4752 9.82719H11.9515L11.9141 9.8646V10.3696L11.9515 10.407H12.2695L13.2234 10.4818H13.2671L13.2109 10.5317L11.5275 11.9595H11.4465C10.9664 11.336 10.4738 10.7687 10 10.1639L9.66332 9.74614L10.2182 9.69626L10.8105 9.65261L10.8479 9.6152L10.9041 9.11018L10.8666 9.0603H6.50225L6.46484 9.11018V9.5965L6.52096 9.65261L7.73675 9.7399L7.81157 9.77731L8.86526 11.0679L10.2743 12.7638V14.3599L9.65085 14.4098L8.91514 14.4659L8.87149 14.5096V14.9335L8.9089 14.9772H13.1985V14.4971H13.0052L11.858 14.4534L11.8517 14.3537C11.8517 13.8175 11.8518 13.2875 11.8892 12.7513V12.7077L12.4565 12.2089L14.2709 10.5878H14.5888L15.5615 10.4818L15.5927 10.4195V9.82095ZM16.4905 11.1365L16.4593 11.2363L16.1974 12.3648L15.8857 13.6242L15.867 13.6367L15.4243 13.5868H15.3994L15.3807 13.5743V13.4185L15.3869 13.2751L15.3994 12.8386L15.4056 12.3648L15.4181 11.8909L15.4243 11.4233L15.4368 11.0929L15.443 11.0679L15.7174 11.0929L15.8982 11.0991L16.2224 11.1178L16.4281 11.124L16.4905 11.1303V11.1365ZM15.6363 14.4909H15.3495L15.3308 14.4721L15.3059 14.2041L15.2872 13.9422L15.2934 13.936L15.4368 13.9484L15.6425 13.9609L15.8795 13.9796L15.9231 13.9858L15.9418 13.9983V14.4721L15.9231 14.4909H15.6363Z" fill="#FEFEFE"/>
</svg>
